<?xml version="1.0" encoding="UTF-8" standalone="no"?>
<!-- Created with Inkscape (http://www.inkscape.org/) -->

<svg
   version="1.1"
   id="svg182"
   width="256"
   height="256"
   viewBox="0 0 256 256"
   sodipodi:docname="icon.svg"
   inkscape:version="1.2.1 (9c6d41e410, 2022-07-14)"
   xmlns:inkscape="http://www.inkscape.org/namespaces/inkscape"
   xmlns:sodipodi="http://sodipodi.sourceforge.net/DTD/sodipodi-0.dtd"
   xmlns:xlink="http://www.w3.org/1999/xlink"
   xmlns="http://www.w3.org/2000/svg"
   xmlns:svg="http://www.w3.org/2000/svg">
  <defs
     id="defs186">
    <linearGradient
       inkscape:collect="always"
       id="linearGradient2228">
      <stop
         style="stop-color:#79b700;stop-opacity:1;"
         offset="0"
         id="stop2224" />
      <stop
         style="stop-color:#7d4dcd;stop-opacity:1;"
         offset="1"
         id="stop2226" />
    </linearGradient>
    <linearGradient
       inkscape:collect="always"
       xlink:href="#linearGradient2228"
       id="linearGradient2230"
       x1="92.57312"
       y1="32.053356"
       x2="92.57312"
       y2="222.66736"
       gradientUnits="userSpaceOnUse" />
  </defs>
  <sodipodi:namedview
     id="namedview184"
     pagecolor="#505050"
     bordercolor="#ffffff"
     borderopacity="1"
     inkscape:showpageshadow="0"
     inkscape:pageopacity="0"
     inkscape:pagecheckerboard="1"
     inkscape:deskcolor="#505050"
     showgrid="false"
     inkscape:zoom="0.39084223"
     inkscape:cx="-2110.8262"
     inkscape:cy="-28.144349"
     inkscape:window-width="3440"
     inkscape:window-height="1377"
     inkscape:window-x="-8"
     inkscape:window-y="-8"
     inkscape:window-maximized="1"
     inkscape:current-layer="g188" />
  <g
     inkscape:groupmode="layer"
     inkscape:label="Image"
     id="g188">
    <path
       id="path298"
       style="opacity:1;fill:url(#linearGradient2230);stroke-width:11.5195;stroke-linecap:round;stroke-linejoin:round;fill-opacity:1"
       d="M 224.33984 31.660156 L 74.628906 64.226562 L 74.628906 152.80664 A 37.314487 37.540634 0 0 0 58.798828 149.25781 A 37.314487 37.540634 0 0 0 21.484375 186.79883 A 37.314487 37.540634 0 0 0 58.798828 224.33984 A 37.314487 37.540634 0 0 0 96.087891 187.16211 L 96.113281 187.20312 L 96.113281 186.79883 L 96.113281 92.042969 L 202.62891 69.201172 L 202.62891 131.67383 A 37.314487 37.540634 0 0 0 187.02539 128.22656 A 37.314487 37.540634 0 0 0 149.71094 165.76758 A 37.314487 37.540634 0 0 0 187.02539 203.30664 A 37.314487 37.540634 0 0 0 224.28516 166.53125 L 224.33984 166.59766 L 224.33984 165.76758 L 224.33984 31.660156 z " />
  </g>
</svg>
